<svg width="462" height="557" viewBox="0 0 462 557" fill="none" xmlns="http://www.w3.org/2000/svg">
<path d="M336.634 152.864L398.221 160.125" stroke="white" stroke-width="3.63093" stroke-miterlimit="10" stroke-linecap="round" stroke-linejoin="round"/>
<path d="M333.903 165.663L394.473 177.687" stroke="white" stroke-width="3.63093" stroke-miterlimit="10" stroke-linecap="round" stroke-linejoin="round"/>
<path d="M331.295 177.863L367.434 187.773" stroke="white" stroke-width="3.63093" stroke-miterlimit="10" stroke-linecap="round" stroke-linejoin="round"/>
<path d="M219.403 248.872L237.111 231.493C237.111 231.493 237.273 214.719 234.573 211.34C231.874 207.961 222.61 204.734 222.61 204.734L165.385 169.769L154.657 169.03C154.657 169.03 160.203 173.641 158.73 199.473C157.256 225.305 151.625 222.544 151.625 222.544L155.158 235.128L177.195 251.36L219.403 248.872Z" fill="black"/>
<path d="M156.003 229.704C153.255 257.131 141.253 298.765 141.253 298.765L179.058 535.329L192.081 538.426L215.389 295.326L226.261 244.423L225.514 237.727L229.554 202.794" fill="white"/>
<path d="M156.003 229.704C153.255 257.131 141.253 298.765 141.253 298.765L179.058 535.329L192.081 538.426L215.389 295.326L226.261 244.423L225.514 237.727L229.554 202.794" stroke="black" stroke-width="2.42062" stroke-miterlimit="10"/>
<path d="M148.625 141.906C150.698 165.695 159.48 182.826 168.323 195.301C177.167 207.776 192.252 212.871 206.422 214.969C220.592 217.066 243.817 188.417 248.018 177.487C251.985 166.196 257.3 134.026 257.3 134.026L249.497 78.8177C249.497 78.8177 207.498 33.725 179.398 42.9662C151.299 52.2074 140.504 88.1852 141.149 102.642C141.857 116.801 148.625 141.906 148.625 141.906Z" fill="white" stroke="black" stroke-width="2.42062" stroke-miterlimit="10"/>
<path d="M153.781 152.987C153.781 152.987 137.735 115.928 123.552 96.39C109.071 76.7879 127.433 63.6012 127.846 49.9927C127.846 49.9927 141.317 55.3698 142.644 68.1063C142.644 68.1063 143.041 9.35574 215.753 18.4006C288.465 27.4454 219.066 43.7033 219.066 43.7033C219.066 43.7033 247.464 43.2516 264.021 31.2348C280.578 19.218 262.278 55.454 252.855 64.6414C243.432 73.8289 249.02 75.3376 261.234 76.3985C273.745 77.5232 273.248 92.9817 265.312 102.488C257.376 111.994 191.601 92.2949 176.221 63.7837C176.221 63.7837 184.293 90.1062 172.623 130.253C172.623 130.253 169.955 115.051 153.24 116.138C136.525 117.226 155.602 145.906 155.602 145.906L154.078 153.051L153.781 152.987Z" fill="#085EBD"/>
<path d="M188.697 66.4341C177.449 46.2852 166.644 60.4713 166.644 60.4713C166.644 60.4713 161.256 34.7279 190.505 28.8452C219.753 22.9625 179.707 15.3292 163.972 27.8382C163.186 28.604 162.103 29.3061 161.02 30.0083C142.865 45.1123 142.622 68.0946 142.622 68.0946C141.298 55.3605 127.827 49.9885 127.827 49.9885C127.41 63.5952 109.105 76.4882 123.517 96.3804C137.994 115.975 153.733 152.96 153.733 152.96L155.258 145.815C155.258 145.815 136.252 116.847 152.907 116.052C169.624 114.96 172.287 130.159 172.287 130.159C183.972 90.0141 175.907 63.6981 175.907 63.6981C181.967 74.644 195.143 84.3107 209.783 91.4892C233.048 100.513 200.008 86.2854 188.697 66.4341Z" fill="#003D81"/>
<path d="M215.462 18.3032C288.181 27.3231 218.767 43.6012 218.767 43.6012C218.767 43.6012 247.169 43.1402 263.732 31.1198C280.296 19.0994 261.981 55.336 252.554 64.5252C243.127 73.7144 248.715 75.2211 260.93 76.2779C273.443 77.3983 272.941 92.8547 265.001 102.362" fill="#085EBD"/>
<path d="M157.887 177.2C160.191 196.992 156.892 225.546 156.892 225.546" stroke="black" stroke-width="2.42062" stroke-miterlimit="10"/>
<path d="M191.446 541.402C179.759 536.412 165.004 510.844 164.763 497.407C164.696 448.211 183.091 319.854 182.945 326.36C144.279 277.311 163.761 238.522 163.761 238.522C147.945 216.462 158.364 195.346 158.364 195.346C147.997 194.373 144.312 215.997 144.312 215.997C144.312 215.997 93.9544 234.795 75.6904 244.584C57.4264 254.373 48.5963 268.048 43.3646 298.367C39.0231 324.52 32.5371 436.436 32.5371 436.436C32.5371 436.436 127.689 486.052 163.121 526.938C198.554 567.825 273.089 511.554 278.429 486.549C283.77 461.545 306.161 337.778 310.738 316.345C318.113 281.815 254.063 235.117 240.676 227.896C240.676 227.896 240.795 209.867 228.897 207.322C228.897 207.322 247.454 229.657 198.286 248.71C198.286 248.71 204.082 284.19 182.712 325.998" fill="#FF7900"/>
<path d="M246.685 473.544C254.716 434.485 301.832 390.091 311.832 378.223C321.534 366.291 343.226 331.711 343.226 331.711C343.226 331.711 340.161 319.849 347.718 307.769C355.274 295.69 365.827 287.053 365.503 275.466C365.287 269.194 364.711 263.157 364.752 260.053C364.963 257.608 366.875 257.394 369.742 257.074C375.711 256.794 384.873 267.781 379.532 292.786C379.532 292.786 387.438 299.458 395.085 298.603L405.87 285.969C405.87 285.969 411.07 276.187 412.3 273.338C413.531 270.488 419.012 271.038 418.249 274.61C417.486 278.182 413.265 290.664 413.265 290.664L405.391 304.232L419.736 315.705L421.268 321.636L433.99 315.953L447.431 305.444C451.041 303.103 456.12 306.991 454.486 308.821C452.553 310.586 439.836 324.986 439.836 324.986L416.091 334.225L389.926 346.059L362.416 346.711C362.416 346.711 343.911 383.84 328.762 419.82C313.613 455.8 307.866 475.426 296.72 488.294C285.574 501.162 269.199 507.932 260.467 505.13C251.671 502.625 244.969 481.581 246.685 473.544Z" fill="white" stroke="black" stroke-width="2.42062" stroke-miterlimit="10"/>
<path d="M253.527 429.856C241.4 435.666 250.775 448.566 260.69 438.547C270.839 428.89 260.69 438.547 260.69 438.547C260.69 438.547 248.166 456.412 246.454 473.166C245.037 485.625 250.245 493.276 250.245 493.276C250.245 493.276 241.533 488.923 237.81 477.231C234.086 465.54 233.36 457.292 238.155 446.489C242.951 435.686 253.527 429.856 253.527 429.856Z" fill="black"/>
<path d="M405.393 304.225L415.774 290.571C415.774 290.571 423.03 274.069 424.388 270.624C425.385 267.414 431.524 267.793 430.952 270.472C430.677 273.215 425.482 291.714 425.482 291.714L413.66 310.663L429.649 296.963C429.649 296.963 440.134 279.907 440.813 278.185C441.492 276.462 446.675 276.949 445.976 280.223C445.277 283.497 437.405 301.424 437.405 301.424L421.036 321.268C421.42 323.84 421.038 325.626 421.038 325.626" fill="white"/>
<path d="M405.393 304.225L415.774 290.571C415.774 290.571 423.03 274.069 424.388 270.624C425.385 267.414 431.524 267.793 430.952 270.472C430.677 273.215 425.482 291.714 425.482 291.714L413.66 310.663L429.649 296.963C429.649 296.963 440.134 279.907 440.813 278.185C441.492 276.462 446.675 276.949 445.976 280.223C445.277 283.497 437.405 301.424 437.405 301.424L421.036 321.268C421.42 323.84 421.038 325.626 421.038 325.626" stroke="black" stroke-width="2.42062" stroke-miterlimit="10"/>
<path d="M395.087 298.593C399.144 298.527 407.284 305.56 407.284 305.56C411.875 310.278 420.078 317.013 421.333 321.328" fill="white"/>
<path d="M395.087 298.593C399.144 298.527 407.284 305.56 407.284 305.56C411.875 310.278 420.078 317.013 421.333 321.328" stroke="black" stroke-width="2.42062" stroke-miterlimit="10"/>
<path d="M163.763 238.526C156.959 225.242 139.219 263.158 139.219 263.158C139.219 263.158 138.761 239.091 144.612 216.063" fill="white"/>
<path d="M163.763 238.526C156.959 225.242 139.219 263.158 139.219 263.158C139.219 263.158 138.761 239.091 144.612 216.063" stroke="black" stroke-width="2.42062" stroke-miterlimit="10"/>
<path d="M241.273 228.021C239.988 248.602 211.536 275.51 211.536 275.51C211.536 275.51 211.536 275.51 211.897 275.276C212.258 275.042 206.38 245.77 198.819 249.133C198.819 249.133 222.013 241.021 230.8 226.092" fill="white"/>
<path d="M241.273 228.021C239.988 248.602 211.536 275.51 211.536 275.51C211.536 275.51 211.536 275.51 211.897 275.276C212.258 275.042 206.38 245.77 198.819 249.133C198.819 249.133 222.013 241.021 230.8 226.092" stroke="black" stroke-width="2.42062" stroke-miterlimit="10"/>
<path d="M250.478 493.649C241.299 488.572 234.301 471.823 235.082 462.34C235.757 451.901 239.619 444.012 239.619 444.012C239.619 444.012 241.525 389.946 245.146 368.62" stroke="black" stroke-width="2.42062" stroke-miterlimit="10"/>
<path d="M239.559 444.311C249.683 427.489 263.065 425.994 268.185 426.778" stroke="black" stroke-width="2.42062" stroke-miterlimit="10"/>
<path d="M211.235 275.447C211.235 275.447 199.628 259.89 199.376 265.439L198.582 248.772C198.879 248.835 206.44 245.472 211.235 275.447Z" fill="black"/>
<path d="M142.179 241.997L50.1279 273.976C50.1279 273.976 57.6162 253.478 75.987 244.645C94.5915 236.174 144.609 216.058 144.609 216.058C144.609 216.058 140.962 230.219 142.179 241.997Z" fill="black"/>
<path d="M154.657 218.528C151.744 213.235 142.128 227.676 142.128 227.676C142.128 227.676 145.255 194.104 158.66 195.416C156.496 201.178 157.867 223.884 154.657 218.528Z" fill="black"/>
<path d="M251.251 430.311C248.501 412.603 244.09 385.2 246.098 364.152C246.098 364.152 237.989 418.136 240.191 445.688C240.191 445.688 244.562 435.417 251.251 430.311Z" fill="black"/>
<path d="M348.781 312.972C346.812 326.558 364.979 333.246 364.979 333.246C364.979 333.246 354.452 353.406 336.933 365.533C324.17 374.32 340.963 353.944 349.471 333.041C349.471 333.041 341.502 326.667 348.781 312.972Z" fill="black"/>
<path d="M292.41 407.984C279.589 425.785 257.657 451.287 251.808 478.673C250.664 484.032 253.513 489.622 257.319 495.105C262.357 502.097 277.562 493.521 282.617 490.245C287.905 487.329 265.392 498.077 260.373 485.175C253.629 467.234 310.052 386.545 292.41 407.984Z" fill="black" stroke="black" stroke-width="2.42062" stroke-miterlimit="10"/>
<path d="M237.303 153.404C223.957 183.855 217.613 198.996 205.656 205.465C193.7 211.934 217.788 208.371 231.822 193.631C245.856 178.89 250.372 162.114 251.405 147.082C252.375 132.349 237.303 153.404 237.303 153.404Z" fill="#FF7900"/>
<path d="M158.824 97.0725C167.425 91.7531 183.35 78.3511 194.927 78.0263C206.505 77.7015 271.793 93.8473 279.399 96.097C287.005 98.3467 285.844 113.974 284.616 121.181C283.451 128.092 280.515 160.77 272.423 163.708C264.565 167.007 241.662 162.108 238.241 159.197C234.755 156.584 228.53 153.696 216.635 155.509C204.739 157.322 177.566 150.575 171.32 149.239C165.074 147.902 157.547 135.086 155.486 133.089C153.361 131.389 152.75 100.754 158.824 97.0725Z" fill="black"/>
<path d="M217.409 92.166C264.403 102.219 272.604 104.596 273.73 105.149C275.154 105.764 277.64 107.23 276.518 115.395C275.778 121.773 273.744 131.299 272.388 139.102C272.007 140.888 271.625 142.674 271.307 144.162C270.608 147.437 270.226 149.223 261.835 147.739C253.74 146.318 199.119 135.567 193.17 134.295C183.653 132.259 184.352 128.984 184.67 127.496C186.089 119.395 188.989 98.5372 188.882 97.5806C189.157 94.8379 190.621 92.3497 192.851 90.6477C195.442 88.7117 198.968 88.2209 202.239 88.9209L206.404 89.8117C209.378 90.448 213.245 91.2751 217.409 92.166ZM218.362 87.7008C211.521 86.2374 205.87 85.0284 203.491 84.5194C193.378 82.356 185.415 89.057 184.357 96.9238C184.357 96.9238 181.33 118.377 180.208 126.541C178.789 134.642 187.224 137.38 192.28 138.462C197.634 139.607 253.084 150.847 261.242 151.97C269.634 153.454 274.54 152.325 275.896 144.521C277.252 136.718 279.985 123.918 281.107 115.754C282.229 107.589 280.378 103.147 275.874 100.938C272.793 99.345 239.183 92.1549 218.362 87.7008Z" fill="white"/>
<path d="M220.028 101.763C256.018 109.462 263.093 111.287 264.219 111.839C267.363 113.134 268.469 115.238 267.94 119.172C267.475 122.807 266.628 128.229 265.737 132.397L265.165 135.076C264.657 137.457 263.149 138.691 255.947 137.462C249.637 136.423 207.338 127.685 202.877 126.731C196.928 125.458 193.91 123.568 194.122 121.123C194.778 116.594 196.068 104.73 196.195 104.135C196.152 102.88 197.064 101.519 198.211 100.519C200.441 98.8175 204.328 98.0927 208.194 98.9198L211.466 99.6198L220.028 101.763ZM220.346 100.274C214.992 99.129 210.828 98.2382 208.746 97.7928C201.013 96.1384 195.003 99.5218 194.644 104.114C194.644 104.114 193.291 116.276 192.634 120.804C191.978 125.333 198.395 127.328 202.559 128.219C206.723 129.11 249.319 137.911 255.927 139.014C262.236 140.052 266.06 139.625 266.95 135.457C267.543 131.226 269.132 123.785 269.491 119.192C269.85 114.6 268.213 112.071 264.834 110.414C262.221 109.544 236.408 103.71 220.346 100.274Z" fill="#FF713A"/>
<path d="M50.128 273.986C54.6874 258.463 69.2119 247.252 78.387 243.612C108.971 231.478 144.906 216.131 144.906 216.131C144.906 216.131 146.92 208.157 149.127 203.649C152.013 197.418 154.37 195.121 158.959 195.48" stroke="white" stroke-width="2.42062" stroke-miterlimit="10" stroke-linecap="round" stroke-linejoin="round"/>
<path d="M189.041 325.491L176.551 327.177L165.488 460.526L177.357 533.103C177.357 533.103 188.641 541.431 191.679 541.769C194.717 542.108 196.947 540.406 196.947 540.406L198.886 343.472L189.041 325.491Z" fill="#FF7900"/>
<path d="M172.943 415.43C172.943 415.43 159.292 473.52 158.447 483.3C157.602 493.08 176.465 532.912 177.083 535.846C177.7 538.779 170.985 491.585 171.207 470.155C171.557 448.129 172.943 415.43 172.943 415.43Z" fill="white"/>
<path d="M266.811 32.7184C259.7 42.7143 213.463 61.1491 203.798 61.2603C203.798 61.2603 222.954 51.6623 228.537 44.4522C228.601 44.1545 248.931 45.0796 266.811 32.7184Z" fill="black"/>
<path d="M172.248 386.639C172.248 386.639 159.735 385.519 156.336 385.414C153.001 385.012 148.968 392.242 147.976 404.17C147.047 415.8 149.263 428.725 153.852 429.084C158.44 429.443 168.51 430.352 168.51 430.352" stroke="#FF713A" stroke-width="2.42062" stroke-miterlimit="10"/>
<path d="M374.461 261.182C383.347 274.911 375.709 293.199 375.709 293.199C375.709 293.199 371.972 296.135 379.941 302.509C387.91 308.883 382.947 323.385 382.354 327.616C381.762 331.847 378.608 313.118 368.218 309.339C357.531 305.497 366.915 295.053 371.182 288.184C375.512 281.017 374.461 261.182 374.461 261.182Z" fill="#FF7900"/>
</svg>
