<svg width="404" height="486" viewBox="0 0 404 486" fill="none" xmlns="http://www.w3.org/2000/svg">
<path d="M276.329 437.931L251.57 470.899V228.904H276.329V437.931Z" fill="#FF7900"/>
<path d="M297.223 411.803L276.328 437.931V228.904L297.223 263.976V411.803Z" fill="#FF7900"/>
<path d="M251.569 470.899L230.674 454.415V228.203L251.569 228.905V470.899Z" fill="black"/>
<path d="M240.682 228.556L230.674 228.205V297.296" stroke="#085EBD" stroke-width="5.33794" stroke-miterlimit="10" stroke-linecap="round"/>
<path d="M376.261 88.5234L345.936 117.82V88.7214L376.261 88.5234Z" fill="#4BB4E6"/>
<path d="M22.8301 417.246V82.1222H35.119V70.4434H99.5366V82.914H111.826V435.655H39.6778L22.8301 417.246Z" fill="black"/>
<path d="M39.6777 435.653V82.1202H51.9666V70.4414H110.636V82.912H122.925V435.653H39.6777Z" fill="#FF7900"/>
<path d="M56.3263 106.27H51.3711V419.421H56.3263V106.27Z" fill="black"/>
<path d="M70.2033 106.27H65.248V419.421H70.2033V106.27Z" fill="black"/>
<path d="M84.0763 106.27H79.1211V419.421H84.0763V106.27Z" fill="black"/>
<path d="M97.9513 106.27H92.9961V419.421H97.9513V106.27Z" fill="black"/>
<path d="M111.627 106.27H106.672V419.421H111.627V106.27Z" fill="black"/>
<path d="M249.188 283.44V355.889" stroke="#FFB4E6" stroke-width="6.02553" stroke-miterlimit="10" stroke-linecap="round"/>
<path d="M61.4805 106.279V414.482" stroke="#FFB4E6" stroke-width="6.02553" stroke-miterlimit="10" stroke-linecap="round"/>
<path d="M74.959 106.279V414.482" stroke="#4BB4E6" stroke-width="6.02553" stroke-miterlimit="10" stroke-linecap="round"/>
<path d="M88.834 106.279V414.482" stroke="#FFB4E6" stroke-width="6.02553" stroke-miterlimit="10" stroke-linecap="round"/>
<path d="M102.709 106.279V414.482" stroke="#4BB4E6" stroke-width="6.02553" stroke-miterlimit="10" stroke-linecap="round"/>
<path d="M304.619 463.83H345.054L401.345 396.726V239.358L375.38 274.791V88.5232L345.054 117.819V44.1831L319.485 4H294.312L304.619 463.83Z" fill="#FF7900"/>
<path d="M278.852 446.012V362.28H304.619V463.827L278.852 446.012Z" fill="black"/>
<path d="M319.485 4H294.312V337.54H319.485V4Z" fill="black"/>
<path d="M345.251 229.463H331.971V463.832H345.251V229.463Z" fill="black"/>
<path d="M294.312 337.74L278.852 362.286H304.619L319.484 337.74H294.312Z" fill="#4BB4E6"/>
<path d="M345.055 229.463L373.398 197.197" stroke="#4BB4E6" stroke-width="6.02553" stroke-miterlimit="10" stroke-linecap="round"/>
<path d="M345.055 117.823L369.038 94.8613" stroke="#FFB4E6" stroke-width="6.02553" stroke-miterlimit="10" stroke-linecap="round"/>
<path d="M319.486 4L345.055 44.1831" stroke="#4BB4E6" stroke-width="6.02553" stroke-miterlimit="10" stroke-linecap="round"/>
<path d="M298.275 27.3613H315.519" stroke="#4BB4E6" stroke-width="3.01277" stroke-miterlimit="10" stroke-linecap="round"/>
<path d="M298.275 45.5703H315.519" stroke="#4BB4E6" stroke-width="3.01277" stroke-miterlimit="10" stroke-linecap="round"/>
<path d="M298.275 63.7832H315.519" stroke="#4BB4E6" stroke-width="3.01277" stroke-miterlimit="10" stroke-linecap="round"/>
<path d="M298.275 82.1895H315.519" stroke="#4BB4E6" stroke-width="3.01277" stroke-miterlimit="10" stroke-linecap="round"/>
<path d="M298.275 100.404H315.519" stroke="#4BB4E6" stroke-width="3.01277" stroke-miterlimit="10" stroke-linecap="round"/>
<path d="M298.275 118.619H315.519" stroke="#4BB4E6" stroke-width="3.01277" stroke-miterlimit="10" stroke-linecap="round"/>
<path d="M298.275 136.83H315.519" stroke="#4BB4E6" stroke-width="3.01277" stroke-miterlimit="10" stroke-linecap="round"/>
<path d="M298.275 155.037H315.519" stroke="#4BB4E6" stroke-width="3.01277" stroke-miterlimit="10" stroke-linecap="round"/>
<path d="M298.275 173.246H315.519" stroke="#4BB4E6" stroke-width="3.01277" stroke-miterlimit="10" stroke-linecap="round"/>
<path d="M298.275 191.656H315.519" stroke="#4BB4E6" stroke-width="3.01277" stroke-miterlimit="10" stroke-linecap="round"/>
<path d="M298.275 209.865H315.519" stroke="#4BB4E6" stroke-width="3.01277" stroke-miterlimit="10" stroke-linecap="round"/>
<path d="M298.275 228.08H315.519" stroke="#4BB4E6" stroke-width="3.01277" stroke-miterlimit="10" stroke-linecap="round"/>
<path d="M298.275 246.291H315.519" stroke="#4BB4E6" stroke-width="3.01277" stroke-miterlimit="10" stroke-linecap="round"/>
<path d="M298.275 264.502H315.519" stroke="#4BB4E6" stroke-width="3.01277" stroke-miterlimit="10" stroke-linecap="round"/>
<path d="M298.275 282.715H315.519" stroke="#4BB4E6" stroke-width="3.01277" stroke-miterlimit="10" stroke-linecap="round"/>
<path d="M298.275 301.12H315.519" stroke="#4BB4E6" stroke-width="3.01277" stroke-miterlimit="10" stroke-linecap="round"/>
<path d="M298.275 319.33H315.519" stroke="#4BB4E6" stroke-width="3.01277" stroke-miterlimit="10" stroke-linecap="round"/>
<path d="M376.035 274.757L402 239.324H376.035V274.757Z" fill="#4BB4E6"/>
<path d="M400.215 241.898L373.854 279.31" stroke="#FFB4E6" stroke-width="6.02553" stroke-miterlimit="10" stroke-linecap="round"/>
<path d="M35.1211 80.6551V71.3516" stroke="#085EBD" stroke-width="6.02553" stroke-miterlimit="10" stroke-linecap="round"/>
<path d="M22.8301 83.668V237.868" stroke="#085EBD" stroke-width="6.02553" stroke-miterlimit="10" stroke-linecap="round"/>
<path d="M306.491 4H295.193V162.753" stroke="#085EBD" stroke-width="6.02553" stroke-miterlimit="10" stroke-linecap="round"/>
<path d="M26.4819 462.734C11.3317 462.734 7.56892 460.855 6.67773 460.261C6.87578 459.866 7.56892 458.976 9.45032 457.591C14.4014 453.933 49.2568 432.77 77.2797 415.761C107.778 397.268 116.69 391.829 119.463 389.852H273.044C275.817 391.73 284.729 397.268 315.227 415.761C343.25 432.77 378.106 453.933 383.057 457.591C384.938 458.976 385.631 459.866 385.829 460.261C384.938 460.855 381.175 462.734 366.025 462.734H26.4819Z" fill="white"/>
<path d="M272.155 392.822C275.818 395.195 285.621 401.228 313.743 418.237C339.786 434.059 371.671 453.442 379.889 458.98C377.216 459.375 372.859 459.771 366.125 459.771H196.304H26.4834C19.75 459.771 15.3931 459.375 12.7195 458.98C20.9383 453.442 52.823 434.059 78.8656 418.237C106.988 401.129 116.692 395.195 120.454 392.822H272.155ZM274.036 386.889H118.573C117.088 388.471 16.7794 448.596 7.76846 455.222C-1.24245 461.848 4.30273 465.704 26.4834 465.704C48.7632 465.704 196.304 465.704 196.304 465.704C196.304 465.704 343.846 465.704 366.125 465.704C388.405 465.704 393.851 461.848 384.84 455.222C375.83 448.497 275.521 388.471 274.036 386.889Z" fill="black"/>
<path d="M388.01 458.287C390.585 460.957 397.615 483.504 352.957 483.504C308.298 483.504 196.008 483.504 196.008 483.504C196.008 483.504 83.7185 483.504 39.06 483.504C-5.59848 483.504 1.43202 460.957 4.00656 458.287" fill="#666666"/>
<path d="M388.01 458.287C390.585 460.957 397.615 483.504 352.957 483.504C308.298 483.504 196.008 483.504 196.008 483.504C196.008 483.504 83.7185 483.504 39.06 483.504C-5.59848 483.504 1.43201 460.957 4.00656 458.287" stroke="black" stroke-width="1.09861" stroke-miterlimit="10"/>
<path d="M12.618 461.847C12.618 461.847 361.766 461.847 371.866 461.847C381.867 461.847 377.312 470.549 370.381 473.714C363.35 476.878 371.668 465.703 348.002 465.703C324.336 465.703 21.2328 465.703 13.9052 465.703C6.57767 465.703 6.77571 461.847 12.618 461.847Z" fill="#999999"/>
<path d="M352.561 484C377.91 484 386.327 476.682 389 470.65C391.476 464.914 389.297 459.377 387.911 457.992L387.614 458.289C387.218 457.695 386.624 457.102 385.931 456.509C385.832 456.509 385.832 456.41 385.733 456.41C385.337 456.014 384.841 455.718 384.346 455.322C384.049 455.124 383.653 454.828 383.257 454.531C383.059 454.333 382.762 454.234 382.564 454.037C380.188 452.454 376.128 449.883 370.979 446.719C369.295 445.631 367.414 444.543 365.532 443.356C351.967 434.951 333.351 423.677 316.418 413.393" stroke="#FFB4E6" stroke-width="3.29582" stroke-miterlimit="10" stroke-linecap="round"/>
<path d="M71.3376 416.164C68.862 417.647 66.3865 419.131 63.911 420.713C62.2276 421.702 60.6433 422.691 58.9599 423.68C52.3255 427.734 45.8892 431.69 39.8489 435.349C39.0567 435.843 38.3636 436.239 37.5714 436.733C34.6008 438.513 31.7292 440.293 29.0556 441.974C26.382 443.656 23.9065 445.139 21.629 446.622C16.4799 449.787 12.4201 452.358 10.0436 453.94C9.74649 454.138 9.54845 454.237 9.35041 454.435C8.8553 454.731 8.55824 455.028 8.26118 455.226C7.86509 455.522 7.46901 455.819 7.17195 456.116C6.18174 456.907 5.48859 457.599 4.99348 458.291H4.5974L4.30034 457.896C3.01306 459.28 0.834601 464.917 3.21111 470.554C5.78565 476.685 14.3015 483.904 39.6508 483.904H54.9001" stroke="#FF7900" stroke-width="3.29582" stroke-miterlimit="10" stroke-linecap="round" stroke-linejoin="round"/>
<path d="M220.17 476.484H176.799C175.71 476.484 174.818 475.594 174.818 474.507V472.825C174.818 471.738 175.71 470.848 176.799 470.848H220.17C221.259 470.848 222.15 471.738 222.15 472.825V474.507C222.15 475.594 221.259 476.484 220.17 476.484Z" fill="black"/>
<path d="M63.9138 476.392C65.3904 476.392 66.5874 475.196 66.5874 473.722C66.5874 472.247 65.3904 471.052 63.9138 471.052C62.4372 471.052 61.2402 472.247 61.2402 473.722C61.2402 475.196 62.4372 476.392 63.9138 476.392Z" fill="black"/>
<path d="M80.7478 476.386C82.2244 476.386 83.4214 475.191 83.4214 473.716C83.4214 472.241 82.2244 471.046 80.7478 471.046C79.2712 471.046 78.0742 472.241 78.0742 473.716C78.0742 475.191 79.2712 476.386 80.7478 476.386Z" fill="black"/>
<path d="M100.355 473.719C100.355 475.202 99.1667 476.389 97.6814 476.389C96.1961 476.389 95.0078 475.202 95.0078 473.719C95.0078 472.235 96.1961 471.049 97.6814 471.049C99.1667 470.95 100.355 472.137 100.355 473.719Z" fill="black"/>
<path d="M117.187 473.719C117.187 475.202 115.999 476.389 114.513 476.389C113.028 476.389 111.84 475.202 111.84 473.719C111.84 472.235 113.028 471.049 114.513 471.049C115.999 470.95 117.187 472.137 117.187 473.719Z" fill="black"/>
<path d="M134.021 473.719C134.021 475.202 132.833 476.389 131.347 476.389C129.862 476.389 128.674 475.202 128.674 473.719C128.674 472.235 129.862 471.049 131.347 471.049C132.833 470.95 134.021 472.137 134.021 473.719Z" fill="black"/>
<path d="M265.72 476.392C267.197 476.392 268.394 475.196 268.394 473.722C268.394 472.247 267.197 471.052 265.72 471.052C264.244 471.052 263.047 472.247 263.047 473.722C263.047 475.196 264.244 476.392 265.72 476.392Z" fill="black"/>
<path d="M282.551 476.386C284.027 476.386 285.224 475.191 285.224 473.716C285.224 472.241 284.027 471.046 282.551 471.046C281.074 471.046 279.877 472.241 279.877 473.716C279.877 475.191 281.074 476.386 282.551 476.386Z" fill="black"/>
<path d="M302.158 473.719C302.158 475.202 300.969 476.389 299.484 476.389C297.999 476.389 296.811 475.202 296.811 473.719C296.811 472.235 297.999 471.049 299.484 471.049C300.969 470.95 302.158 472.137 302.158 473.719Z" fill="black"/>
<path d="M318.992 473.719C318.992 475.202 317.803 476.389 316.318 476.389C314.833 476.389 313.645 475.202 313.645 473.719C313.645 472.235 314.833 471.049 316.318 471.049C317.803 470.95 318.992 472.137 318.992 473.719Z" fill="black"/>
<path d="M335.824 473.719C335.824 475.202 334.635 476.389 333.15 476.389C331.665 476.389 330.477 475.202 330.477 473.719C330.477 472.235 331.665 471.049 333.15 471.049C334.635 470.95 335.824 472.137 335.824 473.719Z" fill="black"/>
<path d="M194.126 446.818C251.603 446.818 298.197 440.62 298.197 432.974C298.197 425.327 251.603 419.129 194.126 419.129C136.649 419.129 90.0547 425.327 90.0547 432.974C90.0547 440.62 136.649 446.818 194.126 446.818Z" fill="black"/>
<path d="M19.8516 453.144H374.248L381.773 458.286H12.623L19.8516 453.144Z" fill="black"/>
<path d="M92.5355 420.211C89.8619 420.211 88.2776 419.717 87.4854 418.629C86.7923 417.739 86.6932 416.454 87.1883 414.772C88.1786 411.311 94.2188 398.752 102.438 397.071C103.527 396.873 104.616 396.774 105.804 396.774C106.795 396.774 107.686 396.873 108.676 396.873C109.666 396.972 110.656 396.972 111.746 396.972C115.508 396.972 120.756 396.181 130.956 390.248C135.511 387.578 139.57 386.292 142.937 386.292C150.958 386.292 152.938 393.808 152.938 393.808V393.907L151.948 409.828H151.552C141.65 410.52 123.331 411.905 115.013 414.97C107.191 417.838 98.5758 419.915 93.6247 420.112C93.2286 420.211 92.8325 420.211 92.5355 420.211Z" fill="white"/>
<path d="M142.836 386.886C150.658 386.886 152.441 394.105 152.441 394.105L151.45 409.532C141.053 410.323 123.031 411.609 114.813 414.675C106.594 417.74 98.1771 419.619 93.6222 419.817C93.2261 419.817 92.929 419.817 92.632 419.817C88.7702 419.817 86.6907 418.729 87.7799 415.07C88.9682 411.114 95.0085 399.248 102.633 397.764C103.821 397.567 104.911 397.468 105.901 397.468C107.881 397.468 109.664 397.764 111.842 397.764C115.902 397.764 121.348 396.775 131.25 390.941C136.003 387.875 139.865 386.886 142.836 386.886ZM142.836 385.897C139.37 385.897 135.211 387.282 130.557 389.952C120.457 395.786 115.308 396.578 111.644 396.578C110.555 396.578 109.565 396.479 108.574 396.479C107.683 396.38 106.693 396.38 105.703 396.38C104.514 396.38 103.326 396.479 102.237 396.677C93.8202 398.358 87.5819 411.213 86.5917 414.675C86.0966 416.553 86.1956 417.938 86.9878 418.927C88.176 420.509 90.6515 420.707 92.4339 420.707C92.731 420.707 93.1271 420.707 93.5232 420.707C98.4742 420.509 107.188 418.432 115.011 415.466C123.229 412.4 141.548 411.114 151.351 410.422L152.243 410.323L152.342 409.433L153.332 394.006V393.809V393.611C153.332 393.71 151.252 385.897 142.836 385.897Z" fill="black"/>
<path d="M93.8163 419.72C98.3713 419.523 106.788 417.644 115.007 414.578C123.226 411.513 141.247 410.227 151.645 409.436L154.021 394.306C132.831 395.789 123.127 398.063 109.165 403.305C96.886 407.854 87.677 427.335 88.5682 412.205C88.0731 413.194 87.479 414.38 87.2809 415.073C86.1917 419.028 89.2613 419.918 93.8163 419.72Z" fill="#4BB4E6"/>
<path d="M190.563 369.486L148.38 357.916L148.578 357.422C148.776 356.73 154.024 341.204 156.302 337.05C158.678 332.6 159.074 330.128 157.787 327.161C156.599 324.392 152.242 314.503 150.756 311.339C139.765 334.974 127.189 345.852 127.09 345.951L126.694 346.247L116.99 333.589V333.391C118.872 301.252 131.348 274.453 135.111 267.036C137.092 263.08 146.796 258.532 157.094 253.785C162.837 251.016 168.877 248.247 172.838 245.775L172.937 245.676H216.11L216.209 245.775C220.17 248.247 226.21 251.115 231.954 253.785C242.252 258.63 251.956 263.179 253.936 267.036C257.699 274.453 270.275 301.252 272.156 333.391V333.589L262.452 346.247L262.056 345.951C261.957 345.852 249.381 334.974 238.39 311.339C237.004 314.503 232.548 324.392 231.36 327.161C230.171 330.128 230.468 332.6 232.845 337.05C235.023 341.204 240.271 356.73 240.568 357.422L240.767 357.916L196.702 369.486L194.722 371.662L190.563 369.486Z" fill="white"/>
<path d="M216.013 246.169C226.707 252.893 250.472 261.299 253.542 267.331C256.611 273.363 269.781 300.657 271.663 333.489L262.355 345.553C262.355 345.553 249.482 334.675 238.293 310.151C238.293 310.151 232.252 323.6 230.866 326.962C229.48 330.324 230.173 333.093 232.351 337.247C234.629 341.4 239.976 357.519 239.976 357.519L196.308 368.99L194.426 370.968L190.564 368.99L148.877 357.519C148.877 357.519 154.323 341.4 156.501 337.247C158.779 333.093 159.472 330.324 157.986 326.962C156.6 323.6 150.56 310.151 150.56 310.151C139.371 334.577 126.498 345.553 126.498 345.553L117.19 333.489C119.071 300.756 132.241 273.363 135.311 267.331C138.38 261.299 162.145 252.893 172.84 246.169H216.013ZM216.31 245.18H216.013H173.137H172.939L172.741 245.377C168.78 247.85 162.739 250.718 156.996 253.388C146.698 258.233 136.895 262.881 134.816 266.936C131.053 274.352 118.477 301.25 116.596 333.489V333.884L116.794 334.181L126.102 346.246L126.696 347.037L127.488 346.344C127.983 345.949 139.965 335.565 150.857 312.623C152.639 316.48 156.402 324.885 157.392 327.456C158.581 330.225 158.185 332.599 155.907 336.95C153.63 341.103 148.381 356.728 148.183 357.42L147.886 358.409L148.877 358.706L190.465 370.177L194.228 372.155L194.921 372.55L195.416 371.957L197.1 370.177L240.471 358.805L241.461 358.508L241.164 357.519C240.966 356.827 235.718 341.301 233.441 337.049C231.163 332.797 230.767 330.423 231.955 327.555C233.044 325.083 236.807 316.578 238.491 312.722C249.383 335.763 261.364 346.048 261.86 346.443L262.652 347.136L263.246 346.344L272.554 334.28L272.752 333.983V333.588C270.87 301.349 258.295 274.55 254.532 267.034C252.453 262.98 242.649 258.431 232.351 253.486C226.608 250.816 220.568 247.949 216.607 245.476L216.31 245.18Z" fill="black"/>
<path d="M240.072 258.137C246.707 261.4 252.252 264.663 253.638 267.334C255.718 271.487 262.649 285.727 267.303 304.912" stroke="#FFB4E6" stroke-width="3.29582" stroke-miterlimit="10" stroke-linecap="round"/>
<path d="M230.267 360.288C209.176 358.706 200.462 354.256 197.69 353.366C194.917 352.377 176.301 357.519 170.756 356.926" stroke="black" stroke-width="1.09861" stroke-miterlimit="10"/>
<path d="M170.757 356.926L218.386 359.398L247.102 350.498L235.715 371.067L207.395 383.429L144.021 368.199L134.416 356.926L142.734 353.267H148.18L170.757 356.926Z" fill="black" stroke="white" stroke-width="1.09861" stroke-miterlimit="10"/>
<path d="M180.266 222.635C180.266 225.404 180.266 233.117 180.266 235.688C180.266 238.259 185.613 242.314 195.218 242.314C204.823 242.314 209.18 237.567 209.18 235.985C209.18 234.304 209.18 223.129 209.18 223.129L180.266 222.635Z" fill="white" stroke="black" stroke-width="1.09861" stroke-miterlimit="10"/>
<path d="M180.266 222.635C180.266 225.404 180.266 233.117 180.266 235.688C180.266 237.468 182.741 239.842 187.296 241.226V222.734L180.266 222.635Z" fill="#4BB4E6"/>
<path d="M216.11 246.168H173.234C162.539 252.893 138.774 261.298 135.705 267.331C133.229 272.176 124.218 290.866 119.861 315.095L227.398 252.101C223.041 250.025 219.08 248.047 216.11 246.168Z" fill="#FF7900"/>
<path d="M112.137 336.556C109.463 337.643 104.215 338.731 104.215 338.731C104.215 338.731 110.651 347.928 112.137 348.521C113.622 349.115 114.81 350.005 119.167 349.214C123.425 348.423 125.603 340.808 125.405 340.412C125.207 340.017 120.256 334.677 120.256 334.677L112.137 336.556Z" fill="white" stroke="black" stroke-width="1.09861" stroke-miterlimit="10"/>
<path d="M274.728 336.556C277.402 337.643 282.65 338.731 282.65 338.731C282.65 338.731 276.214 347.928 274.728 348.521C273.243 349.115 272.055 350.005 267.698 349.214C263.44 348.423 261.262 340.808 261.46 340.412C261.658 340.017 266.609 334.677 266.609 334.677L274.728 336.556Z" fill="white" stroke="black" stroke-width="1.09861" stroke-miterlimit="10"/>
<path d="M176.206 205.026C174.82 202.356 172.146 204.73 172.344 206.411C172.542 208.092 172.443 217.19 177.593 216.102" fill="white"/>
<path d="M176.206 205.026C174.82 202.356 172.146 204.73 172.344 206.411C172.542 208.092 172.443 217.19 177.593 216.102" stroke="black" stroke-width="1.09861" stroke-miterlimit="10"/>
<path d="M213.929 205.026C215.316 202.356 217.989 204.73 217.791 206.411C217.593 208.092 217.692 217.19 212.543 216.102" fill="white"/>
<path d="M213.929 205.026C215.316 202.356 217.989 204.73 217.791 206.411C217.593 208.092 217.692 217.19 212.543 216.102" stroke="black" stroke-width="1.09861" stroke-miterlimit="10"/>
<path d="M195.317 231.332C189.177 231.332 184.127 228.563 179.869 222.926C177.196 219.465 176.602 215.707 175.809 198.104C175.413 189.897 177.493 183.271 181.751 178.722C185.216 175.063 190.167 172.986 195.416 172.986C200.763 172.986 205.615 174.964 209.08 178.722C213.338 183.172 215.418 189.897 215.022 198.104C214.23 215.707 213.536 219.366 210.962 222.926C206.605 228.563 201.555 231.332 195.317 231.332Z" fill="white"/>
<path d="M195.319 173.581C204.726 173.581 215.222 180.404 214.43 198.106C213.638 215.807 212.945 219.268 210.469 222.63C207.993 225.993 203.34 230.838 195.418 230.838C187.496 230.838 182.842 225.894 180.367 222.63C177.891 219.268 177.198 215.807 176.406 198.106C175.416 180.404 185.912 173.581 195.319 173.581ZM195.319 172.592C189.873 172.592 184.922 174.668 181.258 178.426C176.901 182.975 174.821 189.799 175.218 198.106C176.109 215.807 176.703 219.565 179.376 223.224C183.733 229.058 188.981 231.827 195.22 231.827C201.557 231.827 206.706 228.959 211.063 223.224C213.737 219.664 214.43 215.906 215.222 198.106C215.618 189.799 213.539 182.975 209.182 178.426C205.815 174.668 200.765 172.592 195.319 172.592Z" fill="black"/>
<path d="M187.293 215.318C188.085 216.011 188.976 216.11 190.957 216.11C192.838 216.11 199.968 216.11 201.057 216.11C202.146 216.11 204.028 215.318 204.523 214.527" stroke="black" stroke-width="1.09861" stroke-miterlimit="10" stroke-linecap="round"/>
<path d="M180.265 235.689C180.265 235.689 176.601 243.403 173.234 246.172C173.234 246.172 174.522 251.314 184.721 254.973L190.365 242.315L180.265 235.689Z" fill="#FF7900" stroke="black" stroke-width="1.09861" stroke-miterlimit="10"/>
<path d="M228.883 314.399C225.813 314.399 221.06 312.619 220.862 312.521L220.664 312.422L220.565 312.224C217.792 306.488 214.525 303.917 210.465 303.917C207.593 303.917 204.623 305.104 201.454 306.389C199.969 306.983 198.285 307.576 196.701 308.169C195.81 308.466 195.018 308.565 194.225 308.565C191.849 308.565 189.769 307.378 188.383 305.104C184.917 299.665 185.512 289.578 189.869 279.887C195.612 267.229 194.82 265.35 192.542 260.603C191.948 259.318 191.255 257.933 190.661 256.054V255.955V255.856C190.661 255.362 190.463 250.912 191.948 249.33C192.344 248.934 192.74 248.736 193.235 248.736C194.919 248.736 197.097 251.011 199.969 255.955C207.296 268.317 204.029 279.195 201.256 287.897C200.563 290.171 199.87 292.347 199.573 294.226C198.879 297.984 198.879 299.863 199.771 300.852C200.365 301.643 201.652 301.939 203.731 301.939C205.613 301.939 208.187 301.643 211.257 301.346C214.525 300.95 217.396 300.753 219.674 300.753C226.506 300.753 229.972 302.335 230.368 305.499C230.863 309.653 230.368 313.806 230.368 313.905V314.202L230.071 314.301C229.774 314.399 229.378 314.399 228.883 314.399Z" fill="white"/>
<path d="M193.234 249.133C194.522 249.133 196.502 250.815 199.572 256.056C208.781 271.483 200.859 284.932 199.077 293.931C197.789 300.458 198.681 302.336 203.731 302.336C205.612 302.336 208.187 302.04 211.355 301.743C214.524 301.348 217.396 301.15 219.772 301.15C226.109 301.15 229.674 302.435 229.971 305.501C230.466 309.654 229.971 313.808 229.971 313.808C229.674 313.907 229.278 313.907 228.882 313.907C225.911 313.907 221.059 312.028 221.059 312.028C217.792 305.402 214.326 303.424 210.464 303.424C206.107 303.424 201.453 306.094 196.502 307.676C195.71 307.973 194.918 308.072 194.126 308.072C186.501 308.072 183.53 294.92 190.165 280.086C197.492 263.868 194.225 264.956 190.957 255.858C191.155 255.759 190.759 249.133 193.234 249.133ZM193.234 248.145C192.64 248.145 192.046 248.441 191.551 248.936C189.967 250.617 190.066 254.968 190.066 255.858V255.957V256.056C190.759 257.935 191.353 259.418 191.947 260.704C194.126 265.351 194.918 267.131 189.274 279.592C184.818 289.382 184.223 299.765 187.788 305.303C189.373 307.676 191.551 308.962 194.126 308.962C195.017 308.962 195.908 308.863 196.799 308.567C198.383 308.072 200.067 307.38 201.552 306.786C204.721 305.501 207.691 304.413 210.365 304.413C213.039 304.413 216.504 305.303 220.069 312.522L220.267 312.918L220.663 313.017C220.861 313.115 225.713 314.895 228.783 314.895C229.278 314.895 229.773 314.895 230.169 314.797L230.862 314.599L230.961 313.907C230.961 313.709 231.456 309.555 230.961 305.303C230.268 300.161 222.347 300.161 219.772 300.161C217.396 300.161 214.524 300.359 211.256 300.754C208.187 301.15 205.612 301.348 203.731 301.348C201.75 301.348 200.661 301.051 200.166 300.458C199.473 299.567 199.473 297.689 200.166 294.227C200.562 292.348 201.156 290.272 201.849 287.997C204.424 279.592 207.989 268.219 200.463 255.66C197.393 250.419 195.215 248.145 193.234 248.145Z" fill="black"/>
<path d="M144.912 293.141C147.19 299.964 151.051 311.93 151.051 311.93" stroke="black" stroke-width="1.09861" stroke-miterlimit="10" stroke-linecap="round"/>
<path d="M244.333 293.141C242.055 299.964 238.193 311.831 238.193 311.831" stroke="black" stroke-width="1.09861" stroke-miterlimit="10" stroke-linecap="round"/>
<path d="M112.137 336.553C110.751 334.674 110.157 332.993 112.83 329.73C115.504 326.466 121.049 326.763 126.198 331.213C131.248 335.762 134.615 342.289 129.466 347.035C125.109 351.09 121.544 349.903 119.168 349.211C119.168 349.211 124.119 346.64 119.861 339.619C115.504 332.696 112.137 336.553 112.137 336.553Z" fill="white" stroke="black" stroke-width="1.09861" stroke-miterlimit="10" stroke-linejoin="round"/>
<path d="M274.729 336.553C276.115 334.674 276.709 332.993 274.036 329.73C271.362 326.466 265.817 326.763 260.668 331.213C255.618 335.762 252.251 342.289 257.4 347.035C261.757 351.09 265.322 349.903 267.698 349.211C267.698 349.211 262.747 346.64 267.005 339.619C271.263 332.696 274.729 336.553 274.729 336.553Z" fill="white" stroke="black" stroke-width="1.09861" stroke-miterlimit="10" stroke-linejoin="round"/>
<path d="M218.881 359.496C229.773 354.551 246.607 349.508 257.499 347.134C268.293 344.662 280.274 351.09 284.433 355.639C288.493 360.188 288.493 365.132 287.206 371.165C285.819 377.197 272.848 384.515 243.339 392.228C213.831 399.942 165.806 413.193 154.715 416.061C147.586 417.841 138.971 395.294 148.081 391.14C159.369 385.899 251.954 351.683 251.954 351.683" fill="black"/>
<path d="M218.881 359.496C229.773 354.551 246.607 349.508 257.499 347.134C268.293 344.662 280.274 351.09 284.433 355.639C288.493 360.188 288.493 365.132 287.206 371.165C285.819 377.197 272.848 384.515 243.339 392.228C213.831 399.942 165.806 413.193 154.715 416.061C147.586 417.841 138.971 395.294 148.081 391.14C159.369 385.899 251.954 351.683 251.954 351.683" stroke="white" stroke-width="1.09861" stroke-miterlimit="10" stroke-linecap="round"/>
<path d="M289.784 412.309C284.833 412.309 276.218 410.628 268.296 408.155C259.879 405.485 241.461 404.991 231.559 404.694H231.163L229.381 388.872V388.773C229.381 388.674 231.064 380.763 239.679 380.763C242.947 380.763 246.809 381.949 251.265 384.224C261.167 389.465 266.316 390.058 269.682 390.058C271.168 390.058 272.554 389.861 273.841 389.762C275.129 389.663 276.218 389.465 277.505 389.465C278.396 389.465 279.188 389.564 279.981 389.663C288.298 390.948 294.834 403.211 296.022 406.573C296.616 408.254 296.517 409.54 295.824 410.43C295.032 411.715 293.15 412.309 289.784 412.309Z" fill="white"/>
<path d="M239.778 381.254C242.649 381.254 246.412 382.144 251.066 384.616C260.374 389.461 265.721 390.549 269.682 390.549C272.653 390.549 274.93 389.956 277.505 389.956C278.297 389.956 279.089 390.055 279.881 390.154C287.605 391.34 294.239 402.812 295.526 406.767C296.814 410.723 294.437 411.811 289.882 411.811H289.783C285.228 411.811 276.812 410.327 268.494 407.657C260.077 404.987 242.154 404.493 231.658 404.196L229.975 388.868C229.975 388.868 231.46 381.254 239.778 381.254ZM239.778 380.265C230.767 380.265 228.984 388.571 228.984 388.67V388.868V389.066L230.668 404.394L230.767 405.284H231.658C241.56 405.581 259.879 406.075 268.197 408.646C276.118 411.118 284.832 412.898 289.783 412.898H289.882C292.16 412.898 295.031 412.701 296.319 410.921C297.111 409.833 297.21 408.448 296.517 406.569C295.328 403.108 288.595 390.549 280.079 389.264C279.188 389.165 278.396 389.066 277.505 389.066C276.217 389.066 275.029 389.165 273.742 389.363C272.455 389.56 271.167 389.659 269.682 389.659C266.414 389.659 261.364 388.967 251.561 383.825C247.105 381.451 243.144 380.265 239.778 380.265Z" fill="black"/>
<path d="M193.039 308.667C190.068 317.172 190.464 321.127 194.623 325.478C198.683 329.83 195.217 335.763 195.613 342.191C195.91 348.619 193.732 352.97 197.693 353.365C201.653 353.761 203.634 347.234 212.447 346.542C212.447 346.542 212.348 355.937 220.963 358.211C229.676 360.486 234.429 360.782 234.429 360.782" stroke="black" stroke-width="1.09861" stroke-miterlimit="10" stroke-linejoin="round"/>
<path d="M199.673 256.057C197.198 251.903 195.415 249.925 194.128 249.332L191.851 250.321C190.959 252.2 191.157 255.76 191.157 255.76C192.247 258.924 193.435 260.902 194.128 262.682L201.258 258.924C200.762 258.034 200.168 257.045 199.673 256.057Z" fill="#FF7900"/>
<path d="M195.214 242.309C191.946 242.309 190.758 241.222 189.768 243.595C188.778 245.869 188.481 246.463 187.886 247.847C187.292 249.133 189.867 255.264 191.154 255.857C192.441 256.55 199.076 256.451 199.67 256.154C200.165 255.857 202.046 249.726 202.046 247.748C202.046 245.771 198.878 242.408 198.878 242.408H195.214V242.309Z" fill="#FF7900" stroke="black" stroke-width="1.09861" stroke-miterlimit="10"/>
<path d="M199.376 294.033C200.367 289.187 202.842 283.155 203.733 276.134C203.535 277.123 194.821 284.342 187.098 290.473C186.009 296.703 186.801 301.746 188.88 304.911C192.049 302.34 195.713 299.571 198.683 297.197C198.782 296.307 199.178 295.121 199.376 294.033Z" fill="#FF7900"/>
<path d="M230.071 313.81C230.071 313.81 230.567 309.656 230.071 305.503C229.972 305.009 229.873 304.613 229.675 304.316C227.794 305.998 224.229 309.063 221.061 311.931C221.061 312.03 221.16 312.03 221.16 312.129C221.061 312.03 227.398 314.502 230.071 313.81Z" fill="#FF7900"/>
<path d="M184.323 179.02L183.53 177.734C178.975 181.492 175.906 188.019 176.302 198.007C177.094 215.708 177.787 219.169 180.263 222.532C182.738 225.894 187.392 230.74 195.314 230.74C196.304 230.74 197.294 230.641 198.285 230.542C180.857 231.135 184.323 207.006 184.323 179.02Z" fill="#4BB4E6"/>
<path d="M251.46 384.712C233.141 375.119 230.27 388.964 230.27 388.964L231.953 404.292C236.706 404.391 242.944 404.589 249.183 404.984L268.492 390.645C264.729 390.25 259.679 388.964 251.46 384.712Z" fill="#4BB4E6"/>
<path d="M132.436 356.632C141.744 363.554 196.502 370.674 201.651 372.355C206.701 374.037 227.991 380.366 235.319 382.343C242.547 384.321 240.171 407.857 232.051 407.758C232.051 407.758 195.512 406.275 159.765 399.748C123.92 393.221 106.789 388.277 102.135 383.53C97.4813 378.783 97.0852 363.95 100.749 357.522C104.413 350.995 119.068 349.413 130.752 349.71C142.338 350.006 163.627 353.27 178.877 357.423" fill="black"/>
<path d="M132.436 356.632C141.744 363.554 196.502 370.674 201.651 372.355C206.701 374.037 227.991 380.366 235.319 382.343C242.547 384.321 240.171 407.857 232.051 407.758C232.051 407.758 195.512 406.275 159.765 399.748C123.92 393.221 106.789 388.277 102.135 383.53C97.4813 378.783 97.0852 363.95 100.749 357.522C104.413 350.995 119.068 349.413 130.752 349.71C142.338 350.006 163.627 353.27 178.877 357.423" stroke="white" stroke-width="1.09861" stroke-miterlimit="10" stroke-linecap="round"/>
<path d="M159.668 399.647C123.823 393.12 106.692 388.175 102.038 383.429C99.7607 381.055 98.4734 376.111 98.2754 371.067" stroke="#085EBD" stroke-width="3.29582" stroke-miterlimit="10" stroke-linecap="round" stroke-linejoin="round"/>
<path d="M210.268 367.01C210.268 367.01 246.608 353.363 251.856 351.484" stroke="#FF7900" stroke-width="3.29582" stroke-miterlimit="10" stroke-linecap="round" stroke-linejoin="round"/>
<path d="M131.842 355.544C135.803 360.39 169.668 366.521 171.846 366.916" stroke="#FFB4E6" stroke-width="3.29582" stroke-miterlimit="10" stroke-linecap="round"/>
<path d="M128.87 282.756C125.107 291.755 119.76 306.786 117.482 324.685" stroke="#085EBD" stroke-width="3.29582" stroke-miterlimit="10" stroke-linecap="round" stroke-linejoin="round"/>
<path d="M281.958 352.968C279.779 352.968 277.997 352.474 276.115 351.881L275.719 351.782C272.452 350.793 267.104 348.617 267.798 344.563C268.194 342.189 269.778 341.398 271.659 340.409C272.848 339.816 274.135 339.124 275.521 338.036C278.987 335.465 285.423 334.179 290.176 333.289C291.761 332.992 293.147 332.696 294.038 332.498C295.226 332.201 296.514 331.509 297.702 330.817C299.286 329.927 300.673 329.136 301.96 329.136C302.653 329.136 303.346 329.432 303.742 329.927C304.039 330.322 304.435 330.817 304.336 331.608C304.237 332.597 303.346 333.586 301.564 334.97C299.979 336.157 299.484 338.629 299.088 340.805C298.791 342.387 298.494 343.772 297.9 344.464C297.603 344.76 297.405 345.057 297.108 345.453C295.92 347.035 294.236 349.21 289.087 351.386C286.414 352.474 284.136 352.968 281.958 352.968Z" fill="white"/>
<path d="M301.96 329.534C302.555 329.534 302.951 329.732 303.446 330.226C304.337 331.314 304.337 332.402 301.366 334.577C298.495 336.753 298.99 342.587 297.604 344.17C296.217 345.653 295.227 348.422 288.989 350.894C286.117 352.081 283.939 352.476 282.057 352.476C279.879 352.476 277.997 351.883 275.918 351.29C272.056 350.202 267.798 348.026 268.293 344.565C268.887 341.203 271.759 341.5 275.918 338.335C280.473 334.973 290.672 333.885 294.237 332.896C297.009 332.204 299.98 329.534 301.96 329.534ZM301.96 328.545C300.574 328.545 299.089 329.336 297.505 330.226C296.316 330.918 295.128 331.611 293.94 331.907C293.049 332.105 291.662 332.402 290.177 332.698C285.424 333.588 278.889 334.874 275.324 337.544C273.839 338.632 272.65 339.324 271.462 339.917C269.482 340.906 267.798 341.796 267.303 344.466C266.709 347.73 269.68 350.499 275.621 352.279L276.017 352.377C277.898 352.971 279.78 353.465 281.958 353.465C284.137 353.465 286.414 352.971 289.286 351.784C294.534 349.609 296.316 347.334 297.505 345.752C297.802 345.356 298 345.06 298.297 344.763C299.089 343.972 299.287 342.488 299.683 340.906C300.079 338.83 300.574 336.456 301.96 335.368C303.941 333.885 304.832 332.797 304.931 331.611C305.03 330.918 304.733 330.226 304.139 329.534C303.644 328.94 302.852 328.545 301.96 328.545Z" fill="black"/>
<path d="M297.605 344.168C299.585 339.817 296.12 335.466 295.129 334.18C294.139 332.895 290.475 334.081 287.307 337.246C284.138 340.41 282.95 341.3 282.059 347.827" fill="white"/>
<path d="M297.605 344.168C299.585 339.817 296.12 335.466 295.129 334.18C294.139 332.895 290.475 334.081 287.307 337.246C284.138 340.41 282.95 341.3 282.059 347.827" stroke="black" stroke-width="1.09861" stroke-miterlimit="10" stroke-linecap="round" stroke-linejoin="round"/>
<path d="M104.81 353.766C102.731 353.766 100.453 353.272 97.6808 352.184C92.5317 350.107 90.8483 347.932 89.6601 346.25C89.363 345.855 89.165 345.558 88.8679 345.262C88.1747 344.569 87.9767 343.185 87.6796 341.603C87.2836 339.427 86.7885 336.955 85.2041 335.768C83.4217 334.384 82.5305 333.296 82.4315 332.406C82.3325 331.615 82.7286 331.021 83.0256 330.725C83.5208 330.131 84.1149 329.934 84.808 329.934C86.0953 329.934 87.4816 330.725 89.0659 331.615C90.2542 332.307 91.5415 332.999 92.7297 333.296C93.6209 333.593 95.0072 333.79 96.5915 334.087C101.345 334.977 107.781 336.263 111.247 338.834C112.732 339.922 114.019 340.614 115.207 341.207C117.188 342.196 118.673 342.987 119.069 345.36C119.762 349.415 114.415 351.689 111.148 352.579L110.752 352.678C108.771 353.173 106.89 353.766 104.81 353.766Z" fill="white"/>
<path d="M84.8085 330.328C86.888 330.328 89.7596 332.899 92.6312 333.69C96.1959 334.679 106.395 335.767 110.95 339.129C115.01 342.293 117.981 341.997 118.575 345.359C119.169 348.721 114.812 350.897 110.95 352.084C108.871 352.677 107.088 353.27 104.811 353.27C102.929 353.27 100.751 352.875 97.8793 351.688C91.5419 349.117 90.6508 346.447 89.2645 344.964C87.8782 343.48 88.3733 337.646 85.5017 335.371C82.6301 333.196 82.531 332.108 83.4222 331.02C83.8183 330.526 84.3134 330.328 84.8085 330.328ZM84.8085 329.339C83.9173 329.339 83.2242 329.636 82.6301 330.328C82.0359 331.02 81.8379 331.712 81.8379 332.404C81.9369 333.492 82.8281 334.679 84.8085 336.162C86.2938 337.25 86.6899 339.623 87.086 341.7C87.3831 343.381 87.6801 344.766 88.4723 345.557C88.7694 345.854 88.9674 346.15 89.2645 346.546C90.4527 348.128 92.2351 350.501 97.4832 352.578C100.256 353.666 102.632 354.259 104.811 354.259C106.989 354.259 108.871 353.765 110.752 353.171L111.148 353.073C117.089 351.293 119.961 348.524 119.466 345.26C119.07 342.59 117.287 341.7 115.307 340.711C114.218 340.118 112.93 339.426 111.445 338.338C107.88 335.668 101.345 334.481 96.592 333.492C95.0077 333.196 93.7204 332.899 92.8292 332.701C91.641 332.404 90.4527 331.712 89.2645 331.02C87.6801 330.13 86.1948 329.339 84.8085 329.339Z" fill="black"/>
<path d="M89.1614 344.862C87.181 340.51 90.6467 336.159 91.6369 334.874C92.6271 333.588 96.2909 334.775 99.4596 337.939C102.628 341.104 103.817 341.994 104.708 348.521" stroke="black" stroke-width="1.09861" stroke-miterlimit="10" stroke-linecap="round"/>
<path d="M206.406 284.732H224.131V298.478" fill="white"/>
<path d="M206.406 284.732H224.131V298.478" stroke="black" stroke-width="1.09861" stroke-miterlimit="10" stroke-linecap="round"/>
<path d="M244.23 294.821C243.24 307.578 256.41 335.564 256.41 335.564L255.221 337.839C255.221 337.839 241.953 320.928 238.586 310.545L244.23 294.821Z" fill="#FF7900"/>
<path d="M208.881 235.689C208.881 235.689 212.545 243.403 215.912 246.172C215.912 246.172 214.625 251.314 204.425 254.973L198.781 242.315L208.881 235.689Z" fill="#FF7900" stroke="black" stroke-width="1.09861" stroke-miterlimit="10"/>
<path d="M250.865 405.086C257.698 405.581 264.332 406.372 268.491 407.657C276.908 410.327 285.325 411.811 289.88 411.811C294.434 411.811 296.91 410.723 295.524 406.767C294.533 403.998 290.969 397.373 286.216 393.318" stroke="#CCCCCC" stroke-width="1.09861" stroke-miterlimit="10"/>
<path d="M191.751 183.572C195.216 186.539 201.752 185.352 205.416 183.572C209.079 181.792 212.545 183.473 212.545 189.505C212.446 195.538 212.545 207.602 212.545 207.602H214.625C214.625 207.602 213.535 201.273 217.892 194.153C222.249 187.033 239.974 185.846 234.627 161.42C224.824 116.326 263.541 123.051 258.491 105.152C258.491 105.152 219.576 81.3193 200.96 112.569C189.374 132.149 195.117 124.04 168.283 135.709C141.25 147.378 151.647 165.87 162.54 177.638C176.006 192.175 174.521 192.373 175.016 200.087C175.511 207.8 175.511 207.8 175.511 207.8H177.789C177.789 207.8 177.789 194.45 177.789 190.89C177.789 187.33 183.73 176.847 191.751 183.572Z" fill="black"/>
<path d="M257.897 105.152C257.897 105.152 218.982 81.3193 200.366 112.569C188.78 132.149 194.523 124.04 167.689 135.709C140.755 147.378 151.152 165.87 162.045 177.638C175.511 192.175 174.026 192.373 174.521 200.087C175.016 207.8 175.016 207.8 175.016 207.8" stroke="#085EBD" stroke-width="3.29582" stroke-miterlimit="10" stroke-linecap="round" stroke-linejoin="round"/>
<path d="M187.093 231.139V240.929L180.261 237.468C180.261 237.468 180.558 233.611 180.261 233.018C179.964 232.424 187.093 231.139 187.093 231.139Z" fill="white" stroke="black" stroke-width="1.09861" stroke-miterlimit="10"/>
<path d="M180.265 235.689C180.265 235.689 176.601 243.403 173.234 246.172C173.234 246.172 174.522 251.314 184.721 254.973L190.365 242.315L180.265 235.689Z" fill="white" stroke="black" stroke-width="1.09861" stroke-miterlimit="10"/>
<path d="M195.214 242.309C191.946 242.309 190.758 241.222 189.768 243.595C188.778 245.869 188.481 246.463 187.886 247.847C187.292 249.133 189.867 255.264 191.154 255.857C192.441 256.55 199.076 256.451 199.67 256.154C200.165 255.857 202.046 249.726 202.046 247.748C202.046 245.771 198.878 242.408 198.878 242.408H195.214V242.309Z" fill="white" stroke="black" stroke-width="1.09861" stroke-miterlimit="10"/>
<path d="M208.881 235.689C208.881 235.689 212.545 243.403 215.912 246.172C215.912 246.172 214.625 251.314 204.425 254.973L198.781 242.315L208.881 235.689Z" fill="white" stroke="black" stroke-width="1.09861" stroke-miterlimit="10"/>
<path d="M200.07 255.463C201.16 257.737 201.952 259.221 202.348 260.21L200.07 255.463Z" fill="white"/>
<path d="M200.07 255.463C201.16 257.737 201.952 259.221 202.348 260.21" stroke="black" stroke-width="1.09861" stroke-miterlimit="10"/>
<path d="M190.363 255.068C190.858 257.145 193.235 261.793 193.235 261.793L190.363 255.068Z" fill="white"/>
<path d="M190.363 255.068C190.858 257.145 193.235 261.793 193.235 261.793" stroke="black" stroke-width="1.09861" stroke-miterlimit="10"/>
<path d="M209.178 226.393L209.277 236.479" stroke="black" stroke-width="1.09861" stroke-miterlimit="10"/>
<path d="M189.967 230.544C194.918 231.928 202.146 231.928 207.196 226.588L189.967 230.544Z" fill="white"/>
<path d="M189.967 230.544C194.918 231.928 202.146 231.928 207.196 226.588" stroke="black" stroke-width="1.09861" stroke-miterlimit="10"/>
<path d="M175.411 171.805L174.619 169.135L171.945 168.641L174.619 167.85L175.114 165.18L175.906 167.751L178.58 168.344L175.906 169.135L175.411 171.805Z" fill="white"/>
<path d="M218.19 128.487L217.695 126.806L216.012 126.509L217.695 126.014L218.091 124.234L218.586 125.916L220.27 126.311L218.586 126.806L218.19 128.487Z" fill="white"/>
<path d="M223.141 163.296C222.546 163.296 222.15 162.802 222.15 162.307C222.15 161.714 222.645 161.318 223.141 161.318C223.735 161.318 224.131 161.813 224.131 162.307C224.131 162.802 223.735 163.296 223.141 163.296Z" fill="white"/>
<path d="M217.101 173.387C216.507 173.387 216.012 172.892 216.012 172.299C216.012 171.705 216.507 171.211 217.101 171.211C217.695 171.211 218.19 171.705 218.19 172.299C218.19 172.892 217.695 173.387 217.101 173.387Z" fill="white"/>
<path d="M226.208 141.046C225.911 141.046 225.713 140.848 225.713 140.551C225.713 140.254 225.911 140.057 226.208 140.057C226.505 140.057 226.703 140.254 226.703 140.551C226.802 140.848 226.505 141.046 226.208 141.046Z" fill="white"/>
<path d="M200.763 137.588C200.367 137.588 200.07 137.291 200.07 136.895C200.07 136.5 200.367 136.203 200.763 136.203C201.16 136.203 201.457 136.5 201.457 136.895C201.556 137.291 201.16 137.588 200.763 137.588Z" fill="white"/>
<path d="M187.788 154.006C187.491 154.006 187.293 153.809 187.293 153.512C187.293 153.215 187.491 153.018 187.788 153.018C188.085 153.018 188.283 153.215 188.283 153.512C188.283 153.809 188.085 154.006 187.788 154.006Z" fill="white"/>
<path d="M236.115 107.724C235.323 107.724 234.729 107.131 234.729 106.34C234.729 105.548 235.323 104.955 236.115 104.955C236.907 104.955 237.501 105.548 237.501 106.34C237.501 107.032 236.907 107.724 236.115 107.724Z" fill="white"/>
<path d="M231.658 127.106C231.46 127.106 231.262 126.908 231.262 126.71C231.262 126.512 231.46 126.314 231.658 126.314C231.856 126.314 232.054 126.512 232.054 126.71C231.955 126.908 231.856 127.106 231.658 127.106Z" fill="white"/>
<path d="M219.871 150.742C219.673 150.742 219.475 150.545 219.475 150.347C219.475 150.149 219.673 149.951 219.871 149.951C220.069 149.951 220.267 150.149 220.267 150.347C220.267 150.545 220.069 150.742 219.871 150.742Z" fill="white"/>
<path d="M158.575 154.006C158.278 154.006 158.08 153.809 158.08 153.512C158.08 153.215 158.278 153.018 158.575 153.018C158.872 153.018 159.07 153.215 159.07 153.512C159.07 153.809 158.872 154.006 158.575 154.006Z" fill="white"/>
<path d="M230.169 175.664C229.575 175.664 229.08 175.169 229.08 174.576C229.08 173.983 229.575 173.488 230.169 173.488C230.763 173.488 231.259 173.983 231.259 174.576C231.259 175.268 230.763 175.664 230.169 175.664Z" fill="white"/>
<path d="M216.804 107.922C216.408 107.922 216.012 107.527 216.012 107.131C216.012 106.735 216.408 106.34 216.804 106.34C217.2 106.34 217.596 106.735 217.596 107.131C217.596 107.527 217.299 107.922 216.804 107.922Z" fill="white"/>
<path d="M180.659 150.246C180.659 148.071 181.748 146.093 183.332 144.906C179.866 145.104 177.094 148.071 177.094 151.631C177.094 155.389 180.064 158.355 183.827 158.355C185.312 158.355 186.699 157.861 187.887 156.971C187.689 156.971 187.59 156.971 187.392 156.971C183.629 156.971 180.659 154.004 180.659 150.246Z" fill="white"/>
</svg>
